<svg width="110" height="32" viewBox="0 0 110 32" fill="none" xmlns="http://www.w3.org/2000/svg">
<g clip-path="url(#clip0)">
<path d="M20.1805 3.00592C16.8545 2.77949 13.6374 2.41675 10.4365 3.10527C8.09952 3.66671 8.63918 6.24982 7.87022 7.96881C7.03178 6.2244 7.10821 4.27668 7.00167 2.39134C6.96461 0.755524 7.60155 0.00462094 9.26685 0C13.8065 0.0600722 18.0612 0.365054 22.6703 0.251841C21.1926 3.49343 21.9361 6.81588 21.7415 10.3486C23.064 9.57921 24.1596 8.94383 25.2528 8.30614C25.3362 8.40549 25.4195 8.50253 25.5029 8.60188C23.1752 10.8661 21.5516 11.0325 21.6396 14.9487C21.6906 26.3879 14.5731 31.8383 3.46262 31.3438C-7.31665 30.4173 10.2512 16.6238 13.2112 14.2949C21.5145 9.76635 17.4683 13.6918 20.1805 3.00592ZM17.8991 12.8116C17.7717 12.7261 17.6466 12.6406 17.5192 12.5551C16.2917 13.2413 15.0271 13.8721 13.8412 14.6276C12.1713 15.2514 -1.85984 28.2247 3.36766 28.361C18.7167 31.3115 16.1666 24.6088 17.8991 12.8116Z" fill="#0060AA"/>
<path d="M38.105 23.0286C38.6748 19.5051 39.2144 16.3767 39.7217 12.978C39.8931 11.3052 38.0865 12.8694 37.1091 13.1282C37.431 11.9013 40.6134 10.7669 41.7714 9.9721C43.8583 8.8469 42.8021 12.0654 42.8114 13.2853C53.3243 5.94957 49.9868 11.4 48.6573 19.6276C48.3794 21.9681 51.8698 18.9852 51.7818 17.8046C52.8634 12.1624 56.1106 9.50307 61.8754 9.71101C63.1007 9.64863 63.5778 10.2216 63.3508 11.4277C62.8366 14.5838 61.9889 17.3956 61.8036 20.6395C62.9548 19.9903 63.8974 19.4589 64.8401 18.9275C64.9073 19.043 64.9721 19.1562 65.0393 19.2717C63.4319 20.6049 61.7898 21.8964 59.8465 22.7398C58.1488 23.1418 58.9803 20.6834 58.8019 19.4982C56.5576 21.3442 52.0736 25.5424 51.3533 20.2999C49.7111 21.0855 44.9469 25.2212 45.4541 21.0254C45.5792 18.165 46.853 15.3024 46.3944 12.4605C42.149 13.2946 42.0818 16.6678 41.6116 20.2121C41.512 22.2961 39.7332 22.2961 38.105 23.0286ZM60.1638 11.5132C58.7765 11.4138 57.1899 10.8408 56.194 12.3542C54.7742 14.5122 54.3944 16.9728 54.6839 19.5097C54.7163 19.7962 55.3509 20.219 55.7099 20.2237C59.923 19.2533 59.4713 14.898 60.1638 11.5132Z" fill="#0060AA"/>
<path d="M94.2781 19.5928C91.7142 21.7022 87.1305 25.6116 86.841 19.81C85.7756 20.3807 80.9905 25.0339 81.1156 21.9495C81.5139 15.9977 82.8411 10.1799 83.9737 4.33907C84.1659 3.7499 83.9644 3.15611 83.8856 2.56232C82.8573 2.68939 81.9772 3.18614 81.0785 3.66441C81.0206 3.56275 80.9604 3.4634 80.9025 3.36174C82.1346 2.01012 84.0964 1.4556 85.6575 0.517552C86.8179 -0.0531336 87.339 0.30961 87.1769 1.6312C86.533 6.93604 85.317 12.1508 84.4276 17.414C84.2956 18.195 84.5272 19.0383 84.5921 19.8516C85.368 19.4126 86.1809 19.0267 86.9012 18.5115C87.8393 16.6469 88.467 14.4035 89.6065 12.6082C91.112 9.94889 94.2851 9.92809 97.0227 9.72708C98.6209 9.57921 99.1026 10.0575 98.8201 11.6332C98.4055 14.6715 97.3956 17.5087 97.3887 20.5978C98.4611 19.9809 99.3829 19.4495 100.305 18.9181C100.367 19.0244 100.432 19.1307 100.495 19.237C98.9335 20.6256 97.3007 21.9264 95.332 22.7304C93.6389 23.1602 94.4588 20.718 94.2781 19.5928ZM95.6701 11.5547C93.0645 11.1018 92.0685 11.3652 91.2926 12.9409C90.621 14.2325 88.8144 20.182 91.1421 20.2721C95.4941 19.0129 94.9243 15.1613 95.6701 11.5547Z" fill="#0060AA"/>
<path d="M64.8818 14.0016C65.6855 12.4466 68.3977 11.2775 69.8244 10.0969C71.8116 9.10568 70.9315 12.5344 71.1052 13.7774C80.0061 6.27997 79.8162 10.3487 77.4491 19.1424C76.6153 21.6053 75.2025 22.9015 72.2865 22.8437C69.345 22.786 69.8707 22.4302 69.2755 25.4661C69.0601 26.559 68.9142 27.668 68.8099 28.7747C68.4834 30.6832 70.1811 29.5279 71.2349 29.4401C71.9946 31.1938 67.8673 31.2238 66.7717 31.8291C65.5743 32.1965 65.1829 32.0302 65.3357 30.7871C66.1024 25.2073 67.1632 19.6622 67.9113 14.0755C67.9692 13.6642 67.7468 13.2137 67.6542 12.7816C66.6999 13.0912 65.8823 13.5995 65.1273 14.2534C65.0485 14.1679 64.9652 14.0847 64.8818 14.0016ZM75.8139 14.0408C75.441 10.8455 72.2772 14.2072 71.1909 15.2862C70.1927 16.7857 70.3571 18.8559 70.0329 20.5887C70.0004 20.9399 70.3571 21.5106 70.686 21.6769C74.8504 23.2642 75.4526 17.1692 75.8139 14.0408Z" fill="#0060AA"/>
<path d="M34.9389 20.3645C35.9834 19.9971 36.7177 19.7407 37.4496 19.4842C37.5121 19.6044 37.5769 19.7245 37.6395 19.8446C35.8491 20.9953 34.156 22.2937 32.0113 22.6935C31.9163 21.5059 31.6963 20.5701 31.8445 19.3317C29.5168 20.8173 27.6708 22.3677 24.9471 22.6865C23.84 19.0498 26.1955 15.5888 25.9175 11.9983C24.7479 12.0353 24.0669 12.9386 23.2424 13.6341C23.1613 13.574 23.078 13.5163 22.9969 13.4562C23.0664 13.2413 23.0664 12.9271 23.2146 12.8254C32.5671 5.4689 28.588 12.7723 28.1063 19.1307C28.1063 19.9833 28.5602 20.3114 29.2852 19.8677C30.8625 18.9066 32.6389 18.1349 32.6158 15.7713C32.9123 14.2186 32.6714 10.5473 34.6656 10.2862C35.2238 10.1938 35.7518 9.93272 36.4166 9.7063C35.9255 13.2482 35.4484 16.6862 34.9389 20.3645Z" fill="#0060AA"/>
<path d="M108.182 12.9872C109.196 10.418 102.343 11.2128 104.786 13.2737C107.255 15.2538 112.768 17.7814 108.316 20.9283C105.407 23.4883 96.636 24.3039 102.03 18.5739C102.503 22.1783 109.261 21.4458 107.265 19.043C105.755 17.7352 104.092 16.6031 102.575 15.3092C101.567 14.3966 101.504 13.7081 102.243 12.5736C103.526 10.6814 107.638 8.77292 109.773 10.0159C109.722 11.3121 109.995 12.7007 108.497 13.2529C108.393 13.1628 108.286 13.075 108.182 12.9872Z" fill="#0060AA"/>
</g>
<defs>
<clipPath id="clip0">
<rect width="110" height="32" fill="white"/>
</clipPath>
</defs>
</svg>
